# xmcd CD database file
# Copyright (C) 1993-1998 Ti Kan
#
# Track frame offsets:
#	150
#	16395
#	35107
#	52597
#	72642
#	82040
#	97732
#	111735
#	134937
#	153450
#
# Disc length: 2254 seconds
#
# Revision: 1
# Processed by: cddbd v1.4b41PL1 Copyright (c) Steve Scherf et al.
# Submitted via: NotifyCDPlayer(CDDB) 1.51.3
#
DISCID=8e08cc0a
DTITLE=Mixed - Planters Great Country Music
DYEAR=1900
DGENRE=
TTITLE0=V. Gill/Never Alone
TTITLE1=T.Tucker/Two Sparrows in a Hurricane
TTITLE2=W. Jennings/Right for the Time
TTITLE3=D. Murphy/Pirate's Cove
TTITLE4=W. Nelson/Please Don't Talk About Me When I'm Gone
TTITLE5=K. Mattea/Walking Away a Winner
TTITLE6=B. Cyrus/Words by Heart
TTITLE7=J. Berry/Time to be a Man
TTITLE8=J. Ely/Whenever Kindness Fails
TTITLE9=G. Jones/I Don't Need Your Rocking Chair
EXTD=
EXTT0=
EXTT1=
EXTT2=
EXTT3=
EXTT4=
EXTT5=
EXTT6=
EXTT7=
EXTT8=
EXTT9=
PLAYORDER=
